<svg viewBox="0 0 100 100" xmlns="http://www.w3.org/2000/svg">
  <circle cx="50" cy="50" r="50" fill="#FFF0E6"/>
  <circle cx="50" cy="56" r="28" fill="#FDDCB5"/>
  <path d="M22,44 C22,22 78,22 78,44 L78,38 C78,16 22,16 22,38Z" fill="#E8751A"/>
  <path d="M22,44 C22,38 28,34 30,42" fill="#E8751A"/>
  <path d="M78,44 C78,38 72,34 70,42" fill="#E8751A"/>
  <path d="M20,42 Q22,50 26,48" fill="#E8751A"/>
  <ellipse cx="38" cy="52" rx="3" ry="3.5" fill="#2D2117"/>
  <ellipse cx="62" cy="52" rx="3" ry="3.5" fill="#2D2117"/>
  <circle cx="39.5" cy="50.5" r="1" fill="#FFF"/>
  <circle cx="63.5" cy="50.5" r="1" fill="#FFF"/>
  <path d="M44,64 Q50,70 56,64" stroke="#D4845A" fill="none" stroke-width="2" stroke-linecap="round"/>
  <ellipse cx="30" cy="60" rx="5" ry="3" fill="#FBCFB7" opacity="0.6"/>
  <ellipse cx="70" cy="60" rx="5" ry="3" fill="#FBCFB7" opacity="0.6"/>
</svg>